<svg id="Layer_1" data-name="Layer 1" xmlns="http://www.w3.org/2000/svg" viewBox="0 0 297.63 399.84"><defs><style>.cls-1{fill:#fff;}.cls-2,.cls-3,.cls-4,.cls-6{fill:#00194f;}.cls-3{font-size:79px;}.cls-3,.cls-4{font-family:Norwester-Regular, Norwester;}.cls-4{font-size:22px;}.cls-5{fill:none;stroke:#00194f;stroke-miterlimit:10;stroke-width:3px;}.cls-6{font-size:17.02px;font-family:OpenSans-Regular, Open Sans;}</style></defs><title>college_logo</title><path class="cls-1" d="M148.82,383.59l-2.68-.71c-56-15-134-76-134-138V49.76L148.82,16.25,285.54,49.76V244.9c0,62-78.08,123-134,138Z"/><path class="cls-2" d="M148.82,383.59l-2.68-.71c-56-15-134-76-134-138V49.76L148.82,16.25,285.54,49.76V244.9c0,62-78.08,123-134,138ZM29.44,65.65V245.52c0,23.4,14.52,49.71,40.9,74.06,22.7,21,52.51,38.39,78.48,46,26-7.58,55.77-25,78.47-46,26.38-24.35,40.9-50.66,40.9-74.06V65.65L148.82,36.13Z"/><text class="cls-3" transform="translate(47.48 147.98) rotate(-8.58) scale(0.77 1)">l</text><text class="cls-3" transform="matrix(0.77, -0.08, 0.1, 0.99, 71.25, 144.24)">a</text><text class="cls-3" transform="translate(103.36 140.86) rotate(-2.92) scale(0.77 1)">n</text><text class="cls-3" transform="matrix(0.77, 0, 0, 1, 133.18, 139.3)">g</text><text class="cls-3" transform="matrix(0.77, 0.04, -0.05, 1, 161.46, 139.23)">d</text><text class="cls-3" transform="translate(189.09 140.5) rotate(5.46) scale(0.77 1)">o</text><text class="cls-3" transform="translate(217.25 143.13) rotate(8.25) scale(0.77 1)">n</text><text class="cls-4" transform="translate(120.96 159.79) rotate(-2.34) scale(0.77 1)">c</text><text class="cls-4" transform="translate(128.96 159.46) rotate(-1.55) scale(0.77 1)">o</text><text class="cls-4" transform="matrix(0.77, -0.01, 0.01, 1, 136.95, 159.25)">l</text><text class="cls-4" transform="matrix(0.77, 0, 0, 1, 144.1, 159.14)">l</text><text class="cls-4" transform="translate(151.1 159.13) rotate(0.65) scale(0.77 1)">e</text><text class="cls-4" transform="translate(159.06 159.21) rotate(1.44) scale(0.77 1)">g</text><text class="cls-4" transform="translate(167.06 159.41) rotate(2.23) scale(0.77 1)">e</text><polygon class="cls-2" points="148.82 42.35 153.84 58.01 170.28 57.95 156.94 67.56 162.08 83.18 148.82 73.46 135.55 83.18 140.69 67.56 127.35 57.95 143.8 58.01 148.82 42.35"/><polygon class="cls-2" points="109.23 58.38 111.98 66.94 120.98 66.91 113.68 72.17 116.49 80.71 109.23 75.4 101.98 80.71 104.79 72.17 97.49 66.91 106.49 66.94 109.23 58.38"/><polygon class="cls-2" points="80.38 65.7 82.47 72.2 89.29 72.17 83.75 76.16 85.89 82.64 80.38 78.61 74.88 82.64 77.01 76.16 71.47 72.17 78.3 72.2 80.38 65.7"/><polygon class="cls-2" points="188.4 58.38 185.65 66.94 176.66 66.91 183.95 72.17 181.14 80.71 188.4 75.4 195.66 80.71 192.84 72.17 200.14 66.91 191.14 66.94 188.4 58.38"/><polygon class="cls-2" points="217.25 65.7 215.16 72.2 208.34 72.17 213.88 76.16 211.75 82.64 217.25 78.61 222.75 82.64 220.62 76.16 226.16 72.17 219.33 72.2 217.25 65.7"/><path class="cls-5" d="M272.1,180.35s-58.38-14.59-123.28-14.59S25.53,180.35,25.53,180.35"/><path class="cls-2" d="M147.16,327.08V250.52s-10.22-20.89-48.86-37.67v81.63S130.33,302,147.16,327.08Z"/><path class="cls-2" d="M127.69,312.1a116.92,116.92,0,0,0-37.8-12.26V217.52l4.55,1.58v77.69S116.7,303.52,127.69,312.1Z"/><path class="cls-2" d="M138.09,324.19S116,311.81,79.2,310V224.89l6.89.73v77.66S121.17,306.54,138.09,324.19Z"/><path class="cls-2" d="M150.47,327.08V250.52s10.22-20.89,48.86-37.67v81.63S167.3,302,150.47,327.08Z"/><path class="cls-2" d="M169.94,312.1a116.92,116.92,0,0,1,37.8-12.26V217.52l-4.54,1.58v77.69S180.93,303.52,169.94,312.1Z"/><path class="cls-2" d="M159.54,324.19s22.12-12.38,58.89-14.24V224.89l-6.88.73v77.66S176.46,306.54,159.54,324.19Z"/><path class="cls-2" d="M130.61,221.63v.82c0,3.15,2.15,5.71,4.79,5.71h26.83c2.64,0,4.79-2.56,4.79-5.71v-.82Z"/><path class="cls-2" d="M139.26,230.74v1.11c0,4.25,3.55,7.69,6.19,7.69h6.73c2.64,0,6.19-3.44,6.19-7.69v-1.11Z"/><path class="cls-2" d="M146.12,219.06H135.28s-10.71-14.6,1.78-29.26C137.06,189.8,133.56,206.25,146.12,219.06Z"/><path class="cls-2" d="M164.79,203.29c-4.38-9.77-9.63-9.51-8.84-21.24a10.42,10.42,0,0,0-7.37,5.36,25.41,25.41,0,0,1-3-12.83s-16.71,21,3.45,44.48v.23h15.27S169.16,213.06,164.79,203.29Z"/><polygon class="cls-2" points="148.82 332.6 151.23 340.64 159.27 343.05 151.23 345.47 148.82 353.51 146.41 345.47 138.36 343.05 146.41 340.64 148.82 332.6"/><polygon class="cls-2" points="128.99 332.37 130.33 336.84 134.8 338.19 130.33 339.53 128.99 344 127.64 339.53 123.17 338.19 127.64 336.84 128.99 332.37"/><polygon class="cls-2" points="168.65 332.37 169.99 336.84 174.46 338.19 169.99 339.53 168.65 344 167.3 339.53 162.83 338.19 167.3 336.84 168.65 332.37"/><text class="cls-6" transform="translate(68.67 200.04) scale(0.96 1)">SINCE</text><text class="cls-6" transform="translate(187.97 200.04)">1980</text><polygon class="cls-2" points="43.55 209.29 51.84 218.78 45.82 218.78 46.43 221.3 53.47 231.37 48.57 230.25 49.52 234.23 55.65 241.85 51.06 240.7 52.48 246.63 57.38 252.41 53.75 251.94 64.53 297.04 64.53 216.14 40.91 198.23 43.55 209.29"/><polygon class="cls-2" points="240.25 252.41 245.15 246.63 246.57 240.7 241.98 241.85 248.11 234.23 249.06 230.25 244.16 231.37 251.2 221.3 251.81 218.78 245.79 218.78 254.08 209.29 256.72 198.23 233.1 216.14 233.1 297.04 243.88 251.94 240.25 252.41"/></svg>